<svg xmlns="http://www.w3.org/2000/svg" viewBox="0 0 64 64" role="img" aria-labelledby="title desc">
  <title id="title">StoryWeaver mark</title>
  <desc id="desc">A fantasy-style book and quill emblem in gold and green.</desc>
  <defs>
    <linearGradient id="bg" x1="0" x2="1" y1="0" y2="1">
      <stop offset="0" stop-color="#f1df9a"/>
      <stop offset="1" stop-color="#c19d4e"/>
    </linearGradient>
    <linearGradient id="book" x1="0" x2="1" y1="0" y2="1">
      <stop offset="0" stop-color="#4f8341"/>
      <stop offset="1" stop-color="#274a1f"/>
    </linearGradient>
  </defs>
  <circle cx="32" cy="32" r="30" fill="#20150f"/>
  <circle cx="32" cy="32" r="27" fill="url(#bg)" opacity="0.95"/>
  <circle cx="32" cy="32" r="22" fill="#23170f"/>
  <path d="M19 21.5c4.8-2.7 9.2-3.8 13-3.8s8.2 1.1 13 3.8v17.2c-4.6-2.3-8.9-3.3-13-3.3s-8.4 1-13 3.3V21.5Z" fill="url(#book)" stroke="#e9d99a" stroke-width="1.5" stroke-linejoin="round"/>
  <path d="M32 17.8v17.6" stroke="#e9d99a" stroke-width="1.5" stroke-linecap="round"/>
  <path d="M31 25.5c6.7-7.4 12.6-8.9 14.3-8.5.2 1.8-1.1 7.9-8.7 14.4l-2.8 7.3-3.4-1.3 3-7.2Z" fill="#f2e6b2" stroke="#23170f" stroke-width="1.2" stroke-linejoin="round"/>
  <path d="M40.6 20.5l4.4 4.2" stroke="#23170f" stroke-width="1" stroke-linecap="round"/>
  <path d="M22 44.5c2.4-1.2 5.7-2 10-2s7.6.8 10 2" fill="none" stroke="#e9d99a" stroke-width="1.4" stroke-linecap="round"/>
  <path d="M47.5 14.5l1.2 2.7 2.8 1.1-2.8 1.2-1.2 2.8-1.1-2.8-2.8-1.2 2.8-1.1 1.1-2.7Z" fill="#f4efcc"/>
</svg>
